<svg width="1316" height="329" viewBox="0 0 1316 329" fill="none" xmlns="http://www.w3.org/2000/svg">
<path d="M25.2 105.352V155.104H33.408V162.52H13.752V97.936H33.408V105.352H25.2ZM62.1124 104.992C58.5604 104.992 56.7364 105.976 56.6404 107.944L55.9204 122.416C55.6804 127.36 53.2564 129.832 48.6484 129.832V130.48C53.2564 130.48 55.6804 132.952 55.9204 137.896L56.6404 152.44C56.7364 154.456 58.5604 155.464 62.1124 155.464V162.52H55.5604C52.8244 162.52 50.4484 161.824 48.4324 160.432C46.4164 159.04 45.4084 157.048 45.4084 154.456V136.96C45.4084 135.616 44.8084 134.632 43.6084 134.008C42.4084 133.336 40.9204 133 39.1444 133V127.312C40.7764 127.312 42.2164 126.976 43.4644 126.304C44.7604 125.584 45.4084 124.552 45.4084 123.208V106C45.4084 103.408 46.4164 101.416 48.4324 100.024C50.4484 98.632 52.8244 97.936 55.5604 97.936H62.1124V104.992ZM69.7207 128.608V119.104H107.737V128.608H69.7207ZM69.7207 144.88V135.376H107.737V144.88H69.7207ZM138.06 97.936C135.228 102.352 132.924 107.584 131.148 113.632C129.372 119.632 128.484 125.176 128.484 130.264C128.484 135.4 129.372 140.968 131.148 146.968C132.924 152.92 135.228 158.104 138.06 162.52H129.42C125.292 158.104 122.1 153.088 119.844 147.472C117.588 141.856 116.46 136.12 116.46 130.264C116.46 124.36 117.588 118.6 119.844 112.984C122.1 107.368 125.292 102.352 129.42 97.936H138.06ZM170.22 105.136L173.604 110.896L165.54 114.64L173.604 118.312L170.22 124.144L162.948 119.032L163.812 127.816H157.116L157.98 119.032L150.708 124.144L147.324 118.312L155.388 114.64L147.324 110.896L150.708 105.136L157.98 110.248L157.116 101.464H163.812L162.948 110.176L170.22 105.136Z" fill="#ECECEC"/>
<path d="M237.589 101.464C240.661 101.464 243.397 102.184 245.797 103.624C248.197 105.016 250.069 106.96 251.413 109.456C252.757 111.904 253.429 114.664 253.429 117.736V118.672C253.429 121.744 252.757 124.528 251.413 127.024C250.069 129.52 248.197 131.488 245.797 132.928C243.397 134.32 240.661 135.016 237.589 135.016H225.709V151H209.797V101.464H237.589ZM225.709 123.424H232.261C233.941 123.424 235.189 122.992 236.005 122.128C236.869 121.264 237.301 120.088 237.301 118.6V118.024C237.301 116.488 236.869 115.312 236.005 114.496C235.189 113.632 233.941 113.2 232.261 113.2H225.709V123.424ZM283.862 112.048C284.966 112.048 285.95 112.192 286.814 112.48C287.678 112.72 288.11 112.864 288.11 112.912V124.936H283.502C280.526 124.936 278.366 125.704 277.022 127.24C275.726 128.776 275.078 131.056 275.078 134.08V151H260.75V112.984H272.486L273.422 118.744C274.286 116.536 275.654 114.88 277.526 113.776C279.398 112.624 281.51 112.048 283.862 112.048ZM313.523 112.12C320.195 112.12 325.427 113.824 329.219 117.232C333.059 120.592 334.979 125.512 334.979 131.992C334.979 138.472 333.059 143.416 329.219 146.824C325.427 150.184 320.195 151.864 313.523 151.864C306.851 151.864 301.619 150.184 297.827 146.824C294.035 143.464 292.139 138.52 292.139 131.992C292.139 125.464 294.035 120.52 297.827 117.16C301.619 113.8 306.851 112.12 313.523 112.12ZM313.523 121.84C308.819 121.84 306.467 124.552 306.467 129.976V134.08C306.467 139.456 308.819 142.144 313.523 142.144C318.275 142.144 320.651 139.456 320.651 134.08V129.976C320.651 124.552 318.275 121.84 313.523 121.84ZM384.658 105.856C384.658 108.784 383.914 111.04 382.426 112.624C380.986 114.208 378.802 115.384 375.874 116.152C377.266 117.208 378.346 118.456 379.114 119.896C379.93 121.288 380.338 122.776 380.338 124.36C380.338 128.392 378.802 131.44 375.73 133.504C372.706 135.568 368.914 136.6 364.354 136.6H358.882C355.858 136.6 354.346 137.296 354.346 138.688C354.346 139.36 354.682 139.912 355.354 140.344C356.026 140.728 357.202 140.92 358.882 140.92H371.842C376.066 140.92 379.258 142.024 381.418 144.232C383.578 146.44 384.658 149.392 384.658 153.088C384.658 155.824 383.938 158.176 382.498 160.144C381.058 162.112 379.114 163.6 376.666 164.608C374.218 165.616 371.554 166.12 368.674 166.12H347.506C345.778 166.12 344.17 165.712 342.682 164.896C341.242 164.08 340.09 162.952 339.226 161.512C338.362 160.12 337.93 158.56 337.93 156.832C337.93 154.96 338.506 153.256 339.658 151.72C340.81 150.232 342.25 149.104 343.978 148.336C342.826 147.52 341.914 146.536 341.242 145.384C340.57 144.232 340.234 142.984 340.234 141.64C340.234 139.768 340.93 138.088 342.322 136.6C343.714 135.064 345.442 134.032 347.506 133.504C345.634 132.304 344.146 130.936 343.042 129.4C341.938 127.816 341.386 126.16 341.386 124.432C341.386 120.016 343.162 116.872 346.714 115C350.314 113.08 355.066 112.12 360.97 112.12C363.562 112.12 365.65 112.264 367.234 112.552C369.586 111.064 371.098 109.72 371.77 108.52C372.49 107.272 372.85 106.384 372.85 105.856H384.658ZM360.826 119.608C359.242 119.608 357.946 120.016 356.938 120.832C355.93 121.648 355.426 122.824 355.426 124.36C355.426 125.944 355.882 127.144 356.794 127.96C357.754 128.728 359.098 129.112 360.826 129.112C362.554 129.112 363.898 128.728 364.858 127.96C365.866 127.144 366.37 125.944 366.37 124.36C366.37 122.776 365.866 121.6 364.858 120.832C363.898 120.016 362.554 119.608 360.826 119.608ZM355.282 151C354.178 151 353.266 151.288 352.546 151.864C351.874 152.488 351.538 153.352 351.538 154.456C351.538 155.56 351.898 156.448 352.618 157.12C353.338 157.792 354.226 158.128 355.282 158.128H366.514C367.57 158.128 368.458 157.792 369.178 157.12C369.946 156.496 370.33 155.632 370.33 154.528C370.33 153.424 369.97 152.56 369.25 151.936C368.53 151.312 367.618 151 366.514 151H355.282ZM414.291 112.048C415.395 112.048 416.379 112.192 417.243 112.48C418.107 112.72 418.539 112.864 418.539 112.912V124.936H413.931C410.955 124.936 408.795 125.704 407.451 127.24C406.155 128.776 405.507 131.056 405.507 134.08V151H391.179V112.984H402.915L403.851 118.744C404.715 116.536 406.083 114.88 407.955 113.776C409.827 112.624 411.939 112.048 414.291 112.048ZM443.159 112.12C448.967 112.12 453.695 113.104 457.343 115.072C460.991 116.992 462.815 120.136 462.815 124.504V139.336C462.815 140.152 463.007 140.824 463.391 141.352C463.775 141.88 464.351 142.144 465.119 142.144H467.711V150.424C467.567 150.52 467.183 150.688 466.559 150.928C465.983 151.12 465.143 151.312 464.039 151.504C462.935 151.744 461.663 151.864 460.223 151.864C457.439 151.864 455.135 151.456 453.311 150.64C451.535 149.776 450.311 148.6 449.639 147.112C447.815 148.552 445.775 149.704 443.519 150.568C441.263 151.432 438.623 151.864 435.599 151.864C426.671 151.864 422.207 148.312 422.207 141.208C422.207 137.512 423.191 134.704 425.159 132.784C427.175 130.816 430.055 129.472 433.799 128.752C437.543 128.032 442.439 127.672 448.487 127.672V125.8C448.487 124.312 447.959 123.184 446.903 122.416C445.895 121.648 444.575 121.264 442.943 121.264C441.455 121.264 440.159 121.528 439.055 122.056C437.999 122.584 437.471 123.424 437.471 124.576V124.864H423.359C423.311 124.624 423.287 124.288 423.287 123.856C423.287 120.256 424.991 117.4 428.399 115.288C431.855 113.176 436.775 112.12 443.159 112.12ZM448.487 134.44C444.407 134.44 441.383 134.896 439.415 135.808C437.495 136.672 436.535 137.848 436.535 139.336C436.535 141.736 438.167 142.936 441.431 142.936C443.303 142.936 444.935 142.432 446.327 141.424C447.767 140.416 448.487 139.168 448.487 137.68V134.44ZM522.862 112.12C527.182 112.12 530.422 113.368 532.582 115.864C534.742 118.312 535.822 121.816 535.822 126.376V151H521.494V128.104C521.494 126.472 521.086 125.176 520.27 124.216C519.502 123.208 518.398 122.704 516.958 122.704C515.278 122.704 513.91 123.28 512.854 124.432C511.798 125.584 511.27 127 511.27 128.68V151H496.942V128.104C496.942 126.472 496.534 125.176 495.718 124.216C494.95 123.208 493.846 122.704 492.406 122.704C490.726 122.704 489.358 123.28 488.302 124.432C487.246 125.584 486.718 127 486.718 128.68V151H472.39V112.984H484.126L485.062 118.672C486.502 116.656 488.398 115.072 490.75 113.92C493.15 112.72 495.67 112.12 498.31 112.12C504.022 112.12 507.862 114.304 509.83 118.672C511.318 116.656 513.214 115.072 515.518 113.92C517.87 112.72 520.318 112.12 522.862 112.12ZM594.862 112.12C599.182 112.12 602.422 113.368 604.582 115.864C606.742 118.312 607.822 121.816 607.822 126.376V151H593.494V128.104C593.494 126.472 593.086 125.176 592.27 124.216C591.502 123.208 590.398 122.704 588.958 122.704C587.278 122.704 585.91 123.28 584.854 124.432C583.798 125.584 583.27 127 583.27 128.68V151H568.942V128.104C568.942 126.472 568.534 125.176 567.718 124.216C566.95 123.208 565.846 122.704 564.406 122.704C562.726 122.704 561.358 123.28 560.302 124.432C559.246 125.584 558.718 127 558.718 128.68V151H544.39V112.984H556.126L557.062 118.672C558.502 116.656 560.398 115.072 562.75 113.92C565.15 112.72 567.67 112.12 570.31 112.12C576.022 112.12 579.862 114.304 581.83 118.672C583.318 116.656 585.214 115.072 587.518 113.92C589.87 112.72 592.318 112.12 594.862 112.12ZM636.046 112.12C643.006 112.12 648.31 113.752 651.958 117.016C655.654 120.28 657.502 125.272 657.502 131.992V134.44H628.99C628.99 137.176 629.59 139.24 630.79 140.632C632.038 142.024 633.982 142.72 636.622 142.72C639.022 142.72 640.774 142.216 641.878 141.208C643.03 140.2 643.606 138.856 643.606 137.176H657.502C657.502 141.784 655.75 145.384 652.246 147.976C648.742 150.568 643.63 151.864 636.91 151.864C629.854 151.864 624.382 150.232 620.494 146.968C616.606 143.656 614.662 138.664 614.662 131.992C614.662 125.464 616.558 120.52 620.35 117.16C624.142 113.8 629.374 112.12 636.046 112.12ZM636.622 121.264C632.11 121.264 629.59 123.4 629.062 127.672H643.03C643.03 125.704 642.454 124.144 641.302 122.992C640.198 121.84 638.638 121.264 636.622 121.264ZM687.526 112.048C688.63 112.048 689.614 112.192 690.478 112.48C691.342 112.72 691.774 112.864 691.774 112.912V124.936H687.166C684.19 124.936 682.03 125.704 680.686 127.24C679.39 128.776 678.742 131.056 678.742 134.08V151H664.414V112.984H676.15L677.086 118.744C677.95 116.536 679.318 114.88 681.19 113.776C683.062 112.624 685.174 112.048 687.526 112.048ZM745.007 100.6C752.351 100.6 758.159 102.448 762.431 106.144C766.703 109.792 768.839 115.024 768.839 121.84H753.647C753.647 118.96 752.879 116.68 751.343 115C749.855 113.32 747.719 112.48 744.935 112.48C741.719 112.48 739.343 113.488 737.807 115.504C736.319 117.52 735.575 120.328 735.575 123.928V128.536C735.575 132.088 736.319 134.896 737.807 136.96C739.343 138.976 741.671 139.984 744.791 139.984C747.863 139.984 750.191 139.192 751.775 137.608C753.359 136.024 754.151 133.792 754.151 130.912H768.839C768.839 137.68 766.751 142.864 762.575 146.464C758.447 150.064 752.591 151.864 745.007 151.864C736.559 151.864 730.151 149.704 725.783 145.384C721.463 141.064 719.303 134.68 719.303 126.232C719.303 117.784 721.463 111.4 725.783 107.08C730.151 102.76 736.559 100.6 745.007 100.6ZM796.078 112.12C802.75 112.12 807.982 113.824 811.774 117.232C815.614 120.592 817.534 125.512 817.534 131.992C817.534 138.472 815.614 143.416 811.774 146.824C807.982 150.184 802.75 151.864 796.078 151.864C789.406 151.864 784.174 150.184 780.382 146.824C776.59 143.464 774.694 138.52 774.694 131.992C774.694 125.464 776.59 120.52 780.382 117.16C784.174 113.8 789.406 112.12 796.078 112.12ZM796.078 121.84C791.374 121.84 789.022 124.552 789.022 129.976V134.08C789.022 139.456 791.374 142.144 796.078 142.144C800.83 142.144 803.206 139.456 803.206 134.08V129.976C803.206 124.552 800.83 121.84 796.078 121.84ZM824.949 151V98.8H839.277V151H824.949ZM868.078 112.12C875.038 112.12 880.342 113.752 883.99 117.016C887.686 120.28 889.534 125.272 889.534 131.992V134.44H861.022C861.022 137.176 861.622 139.24 862.822 140.632C864.07 142.024 866.014 142.72 868.654 142.72C871.054 142.72 872.806 142.216 873.91 141.208C875.062 140.2 875.638 138.856 875.638 137.176H889.534C889.534 141.784 887.782 145.384 884.278 147.976C880.774 150.568 875.662 151.864 868.942 151.864C861.886 151.864 856.414 150.232 852.526 146.968C848.638 143.656 846.694 138.664 846.694 131.992C846.694 125.464 848.59 120.52 852.382 117.16C856.174 113.8 861.406 112.12 868.078 112.12ZM868.654 121.264C864.142 121.264 861.622 123.4 861.094 127.672H875.062C875.062 125.704 874.486 124.144 873.334 122.992C872.23 121.84 870.67 121.264 868.654 121.264ZM946.917 112.12C951.237 112.12 954.477 113.368 956.637 115.864C958.797 118.312 959.877 121.816 959.877 126.376V151H945.549V128.104C945.549 126.472 945.141 125.176 944.325 124.216C943.557 123.208 942.453 122.704 941.013 122.704C939.333 122.704 937.965 123.28 936.909 124.432C935.853 125.584 935.325 127 935.325 128.68V151H920.997V128.104C920.997 126.472 920.589 125.176 919.773 124.216C919.005 123.208 917.901 122.704 916.461 122.704C914.781 122.704 913.413 123.28 912.357 124.432C911.301 125.584 910.773 127 910.773 128.68V151H896.445V112.984H908.181L909.117 118.672C910.557 116.656 912.453 115.072 914.805 113.92C917.205 112.72 919.725 112.12 922.365 112.12C928.077 112.12 931.917 114.304 933.885 118.672C935.373 116.656 937.269 115.072 939.573 113.92C941.925 112.72 944.373 112.12 946.917 112.12ZM987.237 112.12C993.045 112.12 997.773 113.104 1001.42 115.072C1005.07 116.992 1006.89 120.136 1006.89 124.504V139.336C1006.89 140.152 1007.09 140.824 1007.47 141.352C1007.85 141.88 1008.43 142.144 1009.2 142.144H1011.79V150.424C1011.65 150.52 1011.26 150.688 1010.64 150.928C1010.06 151.12 1009.22 151.312 1008.12 151.504C1007.01 151.744 1005.74 151.864 1004.3 151.864C1001.52 151.864 999.213 151.456 997.389 150.64C995.613 149.776 994.389 148.6 993.717 147.112C991.893 148.552 989.853 149.704 987.597 150.568C985.341 151.432 982.701 151.864 979.677 151.864C970.749 151.864 966.285 148.312 966.285 141.208C966.285 137.512 967.269 134.704 969.237 132.784C971.253 130.816 974.133 129.472 977.877 128.752C981.621 128.032 986.517 127.672 992.565 127.672V125.8C992.565 124.312 992.037 123.184 990.981 122.416C989.973 121.648 988.653 121.264 987.021 121.264C985.533 121.264 984.237 121.528 983.133 122.056C982.077 122.584 981.549 123.424 981.549 124.576V124.864H967.437C967.389 124.624 967.365 124.288 967.365 123.856C967.365 120.256 969.069 117.4 972.477 115.288C975.933 113.176 980.853 112.12 987.237 112.12ZM992.565 134.44C988.485 134.44 985.461 134.896 983.493 135.808C981.573 136.672 980.613 137.848 980.613 139.336C980.613 141.736 982.245 142.936 985.509 142.936C987.381 142.936 989.013 142.432 990.405 141.424C991.845 140.416 992.565 139.168 992.565 137.68V134.44ZM1042.96 112.984H1059.67L1045.63 128.32L1060.03 151H1043.76L1035.76 137.968L1030.8 142.792V151H1016.47V98.728H1030.8V127.528L1042.96 112.984Z" fill="#434343"/>
<path d="M44.928 51.912V63H7.56V51.912H19.296V29.52H7.56V21.168C10.776 20.976 14.376 20.136 18.36 18.648C22.344 17.112 25.824 15.36 28.8 13.392H33.624V51.912H44.928ZM72.9354 12.6C76.8234 12.6 80.1834 13.224 83.0154 14.472C85.8954 15.672 88.1034 17.4 89.6394 19.656C91.2234 21.912 92.0154 24.528 92.0154 27.504C92.0154 30.288 91.3194 32.808 89.9274 35.064C88.5354 37.32 86.7834 39.312 84.6714 41.04C82.5594 42.768 79.6554 44.88 75.9594 47.376C73.8954 48.72 72.2154 49.872 70.9194 50.832H92.5914V63H51.5514V59.544C51.5514 57 52.1274 54.744 53.2794 52.776C54.4794 50.76 56.2074 48.744 58.4634 46.728C60.7674 44.712 64.0794 41.976 68.3994 38.52C71.8554 35.784 74.2794 33.696 75.6714 32.256C77.0634 30.816 77.7594 29.4 77.7594 28.008C77.7594 26.52 77.2314 25.272 76.1754 24.264C75.1674 23.256 73.6314 22.752 71.5674 22.752C69.4074 22.752 67.7034 23.376 66.4554 24.624C65.2074 25.872 64.5834 27.504 64.5834 29.52V30.96H51.7674C51.7194 30.576 51.6954 30.048 51.6954 29.376C51.6954 24.192 53.4954 20.112 57.0954 17.136C60.7434 14.112 66.0234 12.6 72.9354 12.6ZM120.455 12.6C124.391 12.6 127.799 13.2 130.679 14.4C133.607 15.6 135.815 17.232 137.303 19.296C138.839 21.312 139.607 23.568 139.607 26.064C139.607 28.56 138.935 30.816 137.591 32.832C136.247 34.8 134.519 36.192 132.407 37.008V37.296C135.143 38.16 137.255 39.672 138.743 41.832C140.279 43.944 141.047 46.512 141.047 49.536C140.855 53.76 139.007 57.216 135.503 59.904C132.047 62.544 126.935 63.864 120.167 63.864C115.511 63.864 111.599 63.24 108.431 61.992C105.263 60.744 102.911 59.04 101.375 56.88C99.8389 54.72 99.0709 52.296 99.0709 49.608V48.096H111.743C111.743 52.032 114.239 54 119.231 54C124.223 54 126.719 51.792 126.719 47.376C126.719 45.696 126.239 44.424 125.279 43.56C124.367 42.648 123.167 42.192 121.679 42.192H116.423V33.336H120.527C122.015 33.336 123.215 32.904 124.127 32.04C125.087 31.128 125.567 29.832 125.567 28.152C125.567 26.568 124.991 25.224 123.839 24.12C122.735 23.016 121.199 22.464 119.231 22.464C117.167 22.464 115.559 22.992 114.407 24.048C113.255 25.104 112.679 26.4 112.679 27.936H100.655V26.136C100.655 23.64 101.423 21.36 102.959 19.296C104.543 17.232 106.823 15.6 109.799 14.4C112.823 13.2 116.375 12.6 120.455 12.6ZM173.662 12.6C173.326 15.096 172.174 18.216 170.206 21.96C168.238 25.656 165.886 29.376 163.15 33.12C160.462 36.816 157.942 39.864 155.59 42.264H169.846V31.968C171.334 29.856 172.846 27.36 174.382 24.48C175.918 21.6 176.926 19.224 177.406 17.352H183.526V42.264H190.438V52.848H183.526V63H169.846V52.848H145.726V42.12C148.318 38.376 150.886 33.84 153.43 28.512C155.974 23.184 158.014 17.88 159.55 12.6H173.662ZM209.878 25.704L209.302 33.192C209.302 33.096 209.782 32.784 210.742 32.256C211.702 31.68 212.974 31.152 214.558 30.672C216.142 30.192 217.918 29.952 219.886 29.952C225.166 29.952 229.342 31.464 232.414 34.488C235.534 37.464 237.094 41.568 237.094 46.8C237.094 49.968 236.254 52.848 234.574 55.44C232.894 58.032 230.518 60.096 227.446 61.632C224.374 63.12 220.822 63.864 216.79 63.864C209.734 63.864 204.31 62.352 200.518 59.328C196.774 56.304 194.902 52.2 194.902 47.016H207.574C207.574 48.984 208.246 50.64 209.59 51.984C210.934 53.28 212.83 53.928 215.278 53.928C217.726 53.928 219.598 53.256 220.894 51.912C222.238 50.52 222.91 48.744 222.91 46.584C222.91 44.376 222.238 42.6 220.894 41.256C219.598 39.864 217.75 39.168 215.35 39.168C213.526 39.168 212.134 39.48 211.174 40.104C210.262 40.68 209.59 41.232 209.158 41.76C208.774 42.288 208.534 42.624 208.438 42.768L197.062 41.184L199.15 13.464H233.422V25.704H209.878ZM264.525 12.6C270.525 12.6 275.325 14.064 278.925 16.992C282.525 19.872 284.325 23.976 284.325 29.304H271.509V28.8C271.509 26.928 270.933 25.392 269.781 24.192C268.629 22.944 266.949 22.32 264.741 22.32C262.485 22.32 260.709 23.112 259.413 24.696C258.165 26.232 257.541 28.32 257.541 30.96V35.136C258.933 33.888 260.589 32.952 262.509 32.328C264.429 31.704 266.253 31.392 267.981 31.392C271.293 31.392 274.269 31.992 276.909 33.192C279.597 34.344 281.709 36.072 283.245 38.376C284.781 40.632 285.549 43.368 285.549 46.584C285.549 52.056 283.653 56.304 279.861 59.328C276.117 62.352 271.005 63.864 264.525 63.864C257.277 63.864 251.877 61.896 248.325 57.96C244.821 53.976 243.069 47.808 243.069 39.456C243.069 30 244.797 23.16 248.253 18.936C251.757 14.712 257.181 12.6 264.525 12.6ZM264.597 40.032C262.341 40.032 260.589 40.656 259.341 41.904C258.141 43.104 257.541 44.832 257.541 47.088C257.541 49.344 258.141 51.096 259.341 52.344C260.541 53.544 262.269 54.144 264.525 54.144C266.829 54.144 268.581 53.568 269.781 52.416C271.029 51.216 271.653 49.488 271.653 47.232C271.653 44.976 271.029 43.224 269.781 41.976C268.581 40.68 266.853 40.032 264.597 40.032ZM333.141 20.016C327.669 26.784 323.349 33.264 320.181 39.456C317.061 45.648 315.501 52.08 315.501 58.752V63H299.517C299.517 56.472 300.909 50.064 303.693 43.776C306.525 37.44 310.341 31.464 315.141 25.848H291.381V13.464H333.141V20.016ZM360.068 12.6C363.668 12.6 366.932 13.176 369.86 14.328C372.788 15.48 375.092 17.16 376.772 19.368C378.5 21.528 379.364 24.144 379.364 27.216C379.364 29.76 378.86 31.776 377.852 33.264C376.844 34.752 375.332 36.216 373.316 37.656V37.944C375.956 39.432 377.924 41.04 379.22 42.768C380.564 44.448 381.236 46.656 381.236 49.392C381.236 54.048 379.34 57.624 375.548 60.12C371.756 62.616 366.596 63.864 360.068 63.864C353.54 63.864 348.404 62.616 344.66 60.12C340.964 57.624 339.116 54.048 339.116 49.392C339.116 46.656 339.764 44.448 341.06 42.768C342.356 41.04 344.324 39.432 346.964 37.944V37.656C344.948 36.216 343.436 34.752 342.428 33.264C341.42 31.776 340.916 29.76 340.916 27.216C340.916 24.144 341.756 21.528 343.436 19.368C345.116 17.16 347.396 15.48 350.276 14.328C353.204 13.176 356.468 12.6 360.068 12.6ZM360.068 22.32C358.004 22.32 356.372 22.776 355.172 23.688C354.02 24.552 353.444 25.92 353.444 27.792C353.444 29.616 354.044 30.984 355.244 31.896C356.492 32.76 358.1 33.192 360.068 33.192C362.036 33.192 363.668 32.76 364.964 31.896C366.26 30.984 366.908 29.616 366.908 27.792C366.908 25.92 366.284 24.552 365.036 23.688C363.788 22.776 362.132 22.32 360.068 22.32ZM360.068 42.336C358.196 42.336 356.612 42.864 355.316 43.92C354.068 44.928 353.444 46.368 353.444 48.24C353.444 50.112 354.044 51.576 355.244 52.632C356.444 53.64 358.052 54.144 360.068 54.144C362.084 54.144 363.716 53.64 364.964 52.632C366.26 51.576 366.908 50.112 366.908 48.24C366.908 46.368 366.236 44.928 364.892 43.92C363.596 42.864 361.988 42.336 360.068 42.336ZM407.804 12.6C415.052 12.6 420.428 14.592 423.932 18.576C427.484 22.512 429.26 28.656 429.26 37.008C429.26 46.464 427.508 53.304 424.004 57.528C420.548 61.752 415.148 63.864 407.804 63.864C401.804 63.864 397.004 62.424 393.404 59.544C389.804 56.616 388.004 52.488 388.004 47.16H400.82V47.664C400.82 49.536 401.396 51.096 402.548 52.344C403.7 53.544 405.38 54.144 407.588 54.144C409.844 54.144 411.596 53.376 412.844 51.84C414.14 50.256 414.788 48.144 414.788 45.504V41.328C413.396 42.576 411.74 43.512 409.82 44.136C407.9 44.76 406.076 45.072 404.348 45.072C401.036 45.072 398.036 44.496 395.348 43.344C392.708 42.144 390.62 40.416 389.084 38.16C387.548 35.856 386.78 33.096 386.78 29.88C386.78 24.408 388.652 20.16 392.396 17.136C396.188 14.112 401.324 12.6 407.804 12.6ZM407.732 22.32C405.476 22.32 403.724 22.944 402.476 24.192C401.276 25.392 400.676 27.12 400.676 29.376C400.676 31.632 401.276 33.384 402.476 34.632C403.676 35.832 405.404 36.432 407.66 36.432C409.964 36.432 411.716 35.856 412.916 34.704C414.164 33.504 414.788 31.776 414.788 29.52C414.788 27.264 414.164 25.512 412.916 24.264C411.716 22.968 409.988 22.32 407.732 22.32ZM456.259 12.6C463.987 12.6 469.411 14.808 472.531 19.224C475.699 23.592 477.283 29.928 477.283 38.232C477.283 46.536 475.699 52.896 472.531 57.312C469.411 61.68 463.987 63.864 456.259 63.864C448.483 63.864 443.011 61.68 439.843 57.312C436.723 52.896 435.163 46.536 435.163 38.232C435.163 29.928 436.723 23.592 439.843 19.224C443.011 14.808 448.483 12.6 456.259 12.6ZM456.259 22.32C453.763 22.32 451.987 23.28 450.931 25.2C449.875 27.12 449.347 30.264 449.347 34.632V41.76C449.347 46.176 449.875 49.344 450.931 51.264C451.987 53.184 453.763 54.144 456.259 54.144C458.755 54.144 460.507 53.184 461.515 51.264C462.523 49.344 463.027 46.176 463.027 41.76V34.632C463.027 30.216 462.523 27.072 461.515 25.2C460.507 23.28 458.755 22.32 456.259 22.32ZM498.882 24.12C504.162 24.12 508.194 26.208 510.978 30.384L512.202 24.984H523.866V77.184H509.538V59.544C506.85 62.424 503.298 63.864 498.882 63.864C493.746 63.864 489.786 62.208 487.002 58.896C484.218 55.536 482.826 50.592 482.826 44.064C482.826 37.488 484.218 32.52 487.002 29.16C489.786 25.8 493.746 24.12 498.882 24.12ZM503.346 34.704C499.218 34.704 497.154 37.152 497.154 42.048V45.864C497.154 50.808 499.218 53.28 503.346 53.28C505.458 53.28 507.042 52.536 508.098 51.048C509.154 49.512 509.682 47.544 509.682 45.144V42.768C509.682 40.368 509.154 38.424 508.098 36.936C507.042 35.448 505.458 34.704 503.346 34.704ZM568.29 63L562.386 41.832H562.098L556.122 63H542.154L528.258 24.984H543.666L549.426 47.448H549.93L555.906 24.984H570.162L575.922 47.448H576.426L582.258 24.984H596.226L582.258 63H568.29ZM616.05 9.936C617.106 9.936 618.426 10.08 620.01 10.368C621.594 10.608 622.866 10.896 623.826 11.232V19.656H620.514C618.978 19.656 617.922 19.944 617.346 20.52C616.77 21.096 616.482 22.08 616.482 23.472V24.984H623.826V34.704H616.482V63H602.154V34.704H596.826V24.984H602.154V23.4C602.154 18.504 603.354 15.048 605.754 13.032C608.154 10.968 611.586 9.936 616.05 9.936ZM653.61 24.12C658.746 24.12 662.706 25.8 665.49 29.16C668.274 32.52 669.666 37.488 669.666 44.064C669.666 50.592 668.274 55.536 665.49 58.896C662.706 62.208 658.746 63.864 653.61 63.864C649.194 63.864 645.642 62.424 642.954 59.544V77.184H628.626V24.984H640.29L641.514 30.384C644.298 26.208 648.33 24.12 653.61 24.12ZM649.146 34.704C647.034 34.704 645.45 35.448 644.394 36.936C643.338 38.424 642.81 40.368 642.81 42.768V45.144C642.81 47.544 643.338 49.512 644.394 51.048C645.45 52.536 647.034 53.28 649.146 53.28C653.274 53.28 655.338 50.808 655.338 45.864V42.048C655.338 37.152 653.274 34.704 649.146 34.704ZM690.978 28.512C693.714 25.584 697.266 24.12 701.634 24.12C706.77 24.12 710.73 25.8 713.514 29.16C716.298 32.472 717.69 37.392 717.69 43.92C717.69 50.496 716.298 55.464 713.514 58.824C710.73 62.184 706.77 63.864 701.634 63.864C696.354 63.864 692.322 61.776 689.538 57.6L688.314 63H676.65V10.8H690.978V28.512ZM697.17 34.704C695.058 34.704 693.474 35.472 692.418 37.008C691.362 38.496 690.834 40.44 690.834 42.84V45.216C690.834 47.616 691.362 49.56 692.418 51.048C693.474 52.536 695.058 53.28 697.17 53.28C701.298 53.28 703.362 50.832 703.362 45.936V42.12C703.362 37.176 701.298 34.704 697.17 34.704ZM725.105 20.52V10.8H739.433V20.52H725.105ZM739.433 65.088C739.433 69.696 738.377 73.008 736.265 75.024C734.201 77.088 730.865 78.12 726.257 78.12C725.009 78.12 723.473 78 721.649 77.76C719.825 77.52 718.385 77.208 717.329 76.824V68.256H721.073C723.761 68.256 725.105 66.72 725.105 63.648V24.984H739.433V65.088ZM749.082 63V10.8H763.41V63H749.082ZM800.13 63L799.194 57.24C797.706 59.304 795.738 60.936 793.29 62.136C790.89 63.288 788.346 63.864 785.658 63.864C781.242 63.864 777.93 62.64 775.722 60.192C773.514 57.744 772.41 54.216 772.41 49.608V24.984H786.738V47.88C786.738 49.512 787.146 50.832 787.962 51.84C788.826 52.8 790.026 53.28 791.562 53.28C793.338 53.28 794.778 52.704 795.882 51.552C796.986 50.4 797.538 48.984 797.538 47.304V24.984H811.866V63H800.13ZM846.714 61.848C844.746 67.176 842.322 71.208 839.442 73.944C836.61 76.728 832.626 78.12 827.49 78.12C824.37 78.12 821.61 77.688 819.21 76.824V68.256H824.97C828.57 68.256 830.706 66.504 831.378 63L816.258 24.984H831.666L838.938 50.256H839.442L846.138 24.984H860.25L846.714 61.848ZM864.665 39.384V24.984H879.929V39.384H864.665ZM872.369 76.176H864.593L870.497 63H864.665V48.672H879.929V62.208L872.369 76.176ZM907.362 24.12C913.17 24.12 917.898 25.104 921.546 27.072C925.194 28.992 927.018 32.136 927.018 36.504V51.336C927.018 52.152 927.21 52.824 927.594 53.352C927.978 53.88 928.554 54.144 929.322 54.144H931.914V62.424C931.77 62.52 931.386 62.688 930.762 62.928C930.186 63.12 929.346 63.312 928.242 63.504C927.138 63.744 925.866 63.864 924.426 63.864C921.642 63.864 919.338 63.456 917.514 62.64C915.738 61.776 914.514 60.6 913.842 59.112C912.018 60.552 909.978 61.704 907.722 62.568C905.466 63.432 902.826 63.864 899.802 63.864C890.874 63.864 886.41 60.312 886.41 53.208C886.41 49.512 887.394 46.704 889.362 44.784C891.378 42.816 894.258 41.472 898.002 40.752C901.746 40.032 906.642 39.672 912.69 39.672V37.8C912.69 36.312 912.162 35.184 911.106 34.416C910.098 33.648 908.778 33.264 907.146 33.264C905.658 33.264 904.362 33.528 903.258 34.056C902.202 34.584 901.674 35.424 901.674 36.576V36.864H887.562C887.514 36.624 887.49 36.288 887.49 35.856C887.49 32.256 889.194 29.4 892.602 27.288C896.058 25.176 900.978 24.12 907.362 24.12ZM912.69 46.44C908.61 46.44 905.586 46.896 903.618 47.808C901.698 48.672 900.738 49.848 900.738 51.336C900.738 53.736 902.37 54.936 905.634 54.936C907.506 54.936 909.138 54.432 910.53 53.424C911.97 52.416 912.69 51.168 912.69 49.68V46.44ZM959.705 24.048C960.809 24.048 961.793 24.192 962.657 24.48C963.521 24.72 963.953 24.864 963.953 24.912V36.936H959.345C956.369 36.936 954.209 37.704 952.865 39.24C951.569 40.776 950.921 43.056 950.921 46.08V63H936.593V24.984H948.329L949.265 30.744C950.129 28.536 951.497 26.88 953.369 25.776C955.241 24.624 957.353 24.048 959.705 24.048ZM988.486 24.12C993.574 24.12 997.87 25.128 1001.37 27.144C1004.93 29.112 1006.7 32.184 1006.7 36.36H993.382C993.382 34.968 992.758 33.984 991.51 33.408C990.646 32.928 989.566 32.688 988.27 32.688C984.814 32.688 983.086 33.504 983.086 35.136C983.086 36.048 983.686 36.696 984.886 37.08C986.086 37.464 988.054 37.872 990.79 38.304C994.15 38.784 996.958 39.36 999.214 40.032C1001.47 40.656 1003.44 41.808 1005.12 43.488C1006.8 45.12 1007.64 47.424 1007.64 50.4C1007.64 55.248 1005.81 58.704 1002.17 60.768C998.566 62.832 993.838 63.864 987.982 63.864C984.622 63.864 981.454 63.408 978.478 62.496C975.502 61.536 973.078 60.072 971.206 58.104C969.334 56.136 968.398 53.64 968.398 50.616H981.718V50.904C981.766 52.536 982.438 53.688 983.734 54.36C985.078 54.984 986.494 55.296 987.982 55.296C991.966 55.296 993.958 54.36 993.958 52.488C993.958 51.528 993.334 50.832 992.086 50.4C990.838 49.968 988.798 49.512 985.966 49.032C982.558 48.456 979.75 47.832 977.542 47.16C975.382 46.488 973.486 45.36 971.854 43.776C970.222 42.144 969.406 39.888 969.406 37.008C969.406 32.352 971.158 29.04 974.662 27.072C978.214 25.104 982.822 24.12 988.486 24.12ZM1039.77 24.984V34.704H1031.71V49.176C1031.71 50.904 1032 52.176 1032.57 52.992C1033.15 53.76 1034.21 54.144 1035.74 54.144H1039.77V62.568C1038.62 62.952 1037.13 63.264 1035.31 63.504C1033.49 63.744 1031.9 63.864 1030.56 63.864C1026.33 63.864 1023.07 63.096 1020.77 61.56C1018.51 60.024 1017.38 57.408 1017.38 53.712V34.704H1012.05V24.984H1017.96L1021.05 13.464H1031.71V24.984H1039.77ZM1089.19 17.856C1089.19 20.784 1088.45 23.04 1086.96 24.624C1085.52 26.208 1083.33 27.384 1080.41 28.152C1081.8 29.208 1082.88 30.456 1083.65 31.896C1084.46 33.288 1084.87 34.776 1084.87 36.36C1084.87 40.392 1083.33 43.44 1080.26 45.504C1077.24 47.568 1073.45 48.6 1068.89 48.6H1063.41C1060.39 48.6 1058.88 49.296 1058.88 50.688C1058.88 51.36 1059.21 51.912 1059.89 52.344C1060.56 52.728 1061.73 52.92 1063.41 52.92H1076.37C1080.6 52.92 1083.79 54.024 1085.95 56.232C1088.11 58.44 1089.19 61.392 1089.19 65.088C1089.19 67.824 1088.47 70.176 1087.03 72.144C1085.59 74.112 1083.65 75.6 1081.2 76.608C1078.75 77.616 1076.09 78.12 1073.21 78.12H1052.04C1050.31 78.12 1048.7 77.712 1047.21 76.896C1045.77 76.08 1044.62 74.952 1043.76 73.512C1042.89 72.12 1042.46 70.56 1042.46 68.832C1042.46 66.96 1043.04 65.256 1044.19 63.72C1045.34 62.232 1046.78 61.104 1048.51 60.336C1047.36 59.52 1046.45 58.536 1045.77 57.384C1045.1 56.232 1044.77 54.984 1044.77 53.64C1044.77 51.768 1045.46 50.088 1046.85 48.6C1048.25 47.064 1049.97 46.032 1052.04 45.504C1050.17 44.304 1048.68 42.936 1047.57 41.4C1046.47 39.816 1045.92 38.16 1045.92 36.432C1045.92 32.016 1047.69 28.872 1051.25 27C1054.85 25.08 1059.6 24.12 1065.5 24.12C1068.09 24.12 1070.18 24.264 1071.77 24.552C1074.12 23.064 1075.63 21.72 1076.3 20.52C1077.02 19.272 1077.38 18.384 1077.38 17.856H1089.19ZM1065.36 31.608C1063.77 31.608 1062.48 32.016 1061.47 32.832C1060.46 33.648 1059.96 34.824 1059.96 36.36C1059.96 37.944 1060.41 39.144 1061.33 39.96C1062.29 40.728 1063.63 41.112 1065.36 41.112C1067.09 41.112 1068.43 40.728 1069.39 39.96C1070.4 39.144 1070.9 37.944 1070.9 36.36C1070.9 34.776 1070.4 33.6 1069.39 32.832C1068.43 32.016 1067.09 31.608 1065.36 31.608ZM1059.81 63C1058.71 63 1057.8 63.288 1057.08 63.864C1056.41 64.488 1056.07 65.352 1056.07 66.456C1056.07 67.56 1056.43 68.448 1057.15 69.12C1057.87 69.792 1058.76 70.128 1059.81 70.128H1071.05C1072.1 70.128 1072.99 69.792 1073.71 69.12C1074.48 68.496 1074.86 67.632 1074.86 66.528C1074.86 65.424 1074.5 64.56 1073.78 63.936C1073.06 63.312 1072.15 63 1071.05 63H1059.81ZM1120.94 24.984H1137.65L1123.61 40.32L1138.01 63H1121.73L1113.74 49.968L1108.77 54.792V63H1094.45V10.728H1108.77V39.528L1120.94 24.984ZM1168.68 24.12C1173.09 24.12 1176.4 25.344 1178.61 27.792C1180.82 30.24 1181.92 33.768 1181.92 38.376V63H1167.6V40.104C1167.6 38.472 1167.16 37.176 1166.3 36.216C1165.48 35.208 1164.31 34.704 1162.77 34.704C1161 34.704 1159.56 35.28 1158.45 36.432C1157.35 37.584 1156.8 39 1156.8 40.68V63H1142.47V24.984H1154.2L1155.14 30.744C1156.63 28.728 1158.57 27.12 1160.97 25.92C1163.42 24.72 1165.99 24.12 1168.68 24.12ZM1210.15 24.12C1217.11 24.12 1222.41 25.752 1226.06 29.016C1229.76 32.28 1231.6 37.272 1231.6 43.992V46.44H1203.09C1203.09 49.176 1203.69 51.24 1204.89 52.632C1206.14 54.024 1208.08 54.72 1210.72 54.72C1213.12 54.72 1214.88 54.216 1215.98 53.208C1217.13 52.2 1217.71 50.856 1217.71 49.176H1231.6C1231.6 53.784 1229.85 57.384 1226.35 59.976C1222.84 62.568 1217.73 63.864 1211.01 63.864C1203.96 63.864 1198.48 62.232 1194.6 58.968C1190.71 55.656 1188.76 50.664 1188.76 43.992C1188.76 37.464 1190.66 32.52 1194.45 29.16C1198.24 25.8 1203.48 24.12 1210.15 24.12ZM1210.72 33.264C1206.21 33.264 1203.69 35.4 1203.16 39.672H1217.13C1217.13 37.704 1216.56 36.144 1215.4 34.992C1214.3 33.84 1212.74 33.264 1210.72 33.264ZM1239.02 20.52V10.8H1253.35V20.52H1239.02ZM1239.02 63V24.984H1253.35V63H1239.02Z" fill="#ECECEC"/>
<path d="M32.976 196.12C39.648 196.12 44.88 197.824 48.672 201.232C52.512 204.592 54.432 209.512 54.432 215.992C54.432 222.472 52.512 227.416 48.672 230.824C44.88 234.184 39.648 235.864 32.976 235.864C26.304 235.864 21.072 234.184 17.28 230.824C13.488 227.464 11.592 222.52 11.592 215.992C11.592 209.464 13.488 204.52 17.28 201.16C21.072 197.8 26.304 196.12 32.976 196.12ZM32.976 205.84C28.272 205.84 25.92 208.552 25.92 213.976V218.08C25.92 223.456 28.272 226.144 32.976 226.144C37.728 226.144 40.104 223.456 40.104 218.08V213.976C40.104 208.552 37.728 205.84 32.976 205.84ZM67.3194 211.168H60.4794L65.5914 198.064H60.4794V185.464H73.8714V197.344L67.3194 211.168ZM124.727 235H108.023L100.823 223.048H100.535L93.2625 235H77.3505L91.9665 214.84L78.7905 196.984H95.6385L101.687 207.064H101.975L108.023 196.984H123.863L110.471 215.2L124.727 235ZM147.867 196.12C154.107 196.12 159.147 197.464 162.987 200.152C166.875 202.792 168.819 206.848 168.819 212.32H154.923C154.923 208 152.571 205.84 147.867 205.84C143.163 205.84 140.811 208.552 140.811 213.976V218.08C140.811 223.456 143.259 226.144 148.155 226.144C153.051 226.144 155.499 223.936 155.499 219.52H168.819C168.819 225.04 166.875 229.144 162.987 231.832C159.147 234.52 154.107 235.864 147.867 235.864C141.195 235.864 135.963 234.184 132.171 230.824C128.379 227.464 126.483 222.52 126.483 215.992C126.483 209.464 128.379 204.52 132.171 201.16C135.963 197.8 141.195 196.12 147.867 196.12ZM203.882 235L202.658 229.6C199.874 233.776 195.842 235.864 190.562 235.864C185.426 235.864 181.466 234.184 178.682 230.824C175.898 227.464 174.506 222.496 174.506 215.92C174.506 209.392 175.898 204.472 178.682 201.16C181.466 197.8 185.426 196.12 190.562 196.12C194.93 196.12 198.482 197.584 201.218 200.512V182.8H215.546V235H203.882ZM195.026 206.704C190.898 206.704 188.834 209.176 188.834 214.12V217.936C188.834 222.832 190.898 225.28 195.026 225.28C197.138 225.28 198.722 224.536 199.778 223.048C200.834 221.56 201.362 219.616 201.362 217.216V214.84C201.362 212.44 200.834 210.496 199.778 209.008C198.722 207.472 197.138 206.704 195.026 206.704ZM234.338 235L219.938 196.984H235.346L242.33 220.672H242.834L249.818 196.984H263.93L249.386 235H234.338ZM318.745 196.12C323.065 196.12 326.305 197.368 328.465 199.864C330.625 202.312 331.705 205.816 331.705 210.376V235H317.377V212.104C317.377 210.472 316.969 209.176 316.153 208.216C315.385 207.208 314.281 206.704 312.841 206.704C311.161 206.704 309.793 207.28 308.737 208.432C307.681 209.584 307.153 211 307.153 212.68V235H292.825V212.104C292.825 210.472 292.417 209.176 291.601 208.216C290.833 207.208 289.729 206.704 288.289 206.704C286.609 206.704 285.241 207.28 284.185 208.432C283.129 209.584 282.601 211 282.601 212.68V235H268.273V196.984H280.009L280.945 202.672C282.385 200.656 284.281 199.072 286.633 197.92C289.033 196.72 291.553 196.12 294.193 196.12C299.905 196.12 303.745 198.304 305.713 202.672C307.201 200.656 309.097 199.072 311.401 197.92C313.753 196.72 316.201 196.12 318.745 196.12ZM354.601 200.944C356.137 199.408 357.937 198.232 360.001 197.416C362.065 196.552 364.225 196.12 366.481 196.12C370.897 196.12 374.209 197.344 376.417 199.792C378.625 202.24 379.729 205.768 379.729 210.376V235H365.401V212.104C365.401 210.472 364.969 209.176 364.105 208.216C363.289 207.208 362.113 206.704 360.577 206.704C358.801 206.704 357.361 207.28 356.257 208.432C355.153 209.584 354.601 211 354.601 212.68V235H340.273V182.8H354.601V200.944ZM396.073 248.176H388.297L394.201 235H388.369V220.672H403.633V234.208L396.073 248.176ZM412.345 235V220.672H427.609V235H412.345ZM431.786 238.456L443.306 182.008H452.018L440.57 238.456H431.786Z" fill="#ECECEC"/>
<path d="M28.8 259.936C29.856 259.936 31.176 260.08 32.76 260.368C34.344 260.608 35.616 260.896 36.576 261.232V269.656H33.264C31.728 269.656 30.672 269.944 30.096 270.52C29.52 271.096 29.232 272.08 29.232 273.472V274.984H36.576V284.704H29.232V313H14.904V284.704H9.576V274.984H14.904V273.4C14.904 268.504 16.104 265.048 18.504 263.032C20.904 260.968 24.336 259.936 28.8 259.936ZM59.7651 274.12C66.4371 274.12 71.6691 275.824 75.4611 279.232C79.3011 282.592 81.2211 287.512 81.2211 293.992C81.2211 300.472 79.3011 305.416 75.4611 308.824C71.6691 312.184 66.4371 313.864 59.7651 313.864C53.0931 313.864 47.8611 312.184 44.0691 308.824C40.2771 305.464 38.3811 300.52 38.3811 293.992C38.3811 287.464 40.2771 282.52 44.0691 279.16C47.8611 275.8 53.0931 274.12 59.7651 274.12ZM59.7651 283.84C55.0611 283.84 52.7091 286.552 52.7091 291.976V296.08C52.7091 301.456 55.0611 304.144 59.7651 304.144C64.5171 304.144 66.8931 301.456 66.8931 296.08V291.976C66.8931 286.552 64.5171 283.84 59.7651 283.84ZM111.245 274.048C112.349 274.048 113.333 274.192 114.197 274.48C115.061 274.72 115.493 274.864 115.493 274.912V286.936H110.885C107.909 286.936 105.749 287.704 104.405 289.24C103.109 290.776 102.461 293.056 102.461 296.08V313H88.1325V274.984H99.8685L100.805 280.744C101.669 278.536 103.037 276.88 104.909 275.776C106.781 274.624 108.893 274.048 111.245 274.048ZM169.157 274.12C174.293 274.12 178.253 275.8 181.037 279.16C183.821 282.52 185.213 287.488 185.213 294.064C185.213 300.592 183.821 305.536 181.037 308.896C178.253 312.208 174.293 313.864 169.157 313.864C164.741 313.864 161.189 312.424 158.501 309.544V327.184H144.173V274.984H155.837L157.061 280.384C159.845 276.208 163.877 274.12 169.157 274.12ZM164.693 284.704C162.581 284.704 160.997 285.448 159.941 286.936C158.885 288.424 158.357 290.368 158.357 292.768V295.144C158.357 297.544 158.885 299.512 159.941 301.048C160.997 302.536 162.581 303.28 164.693 303.28C168.821 303.28 170.885 300.808 170.885 295.864V292.048C170.885 287.152 168.821 284.704 164.693 284.704ZM215.237 274.048C216.341 274.048 217.325 274.192 218.189 274.48C219.053 274.72 219.485 274.864 219.485 274.912V286.936H214.877C211.901 286.936 209.741 287.704 208.397 289.24C207.101 290.776 206.453 293.056 206.453 296.08V313H192.125V274.984H203.861L204.797 280.744C205.661 278.536 207.029 276.88 208.901 275.776C210.773 274.624 212.885 274.048 215.237 274.048ZM244.898 274.12C251.57 274.12 256.802 275.824 260.594 279.232C264.434 282.592 266.354 287.512 266.354 293.992C266.354 300.472 264.434 305.416 260.594 308.824C256.802 312.184 251.57 313.864 244.898 313.864C238.226 313.864 232.994 312.184 229.202 308.824C225.41 305.464 223.514 300.52 223.514 293.992C223.514 287.464 225.41 282.52 229.202 279.16C232.994 275.8 238.226 274.12 244.898 274.12ZM244.898 283.84C240.194 283.84 237.842 286.552 237.842 291.976V296.08C237.842 301.456 240.194 304.144 244.898 304.144C249.65 304.144 252.026 301.456 252.026 296.08V291.976C252.026 286.552 249.65 283.84 244.898 283.84ZM316.033 267.856C316.033 270.784 315.289 273.04 313.801 274.624C312.361 276.208 310.177 277.384 307.249 278.152C308.641 279.208 309.721 280.456 310.489 281.896C311.305 283.288 311.713 284.776 311.713 286.36C311.713 290.392 310.177 293.44 307.105 295.504C304.081 297.568 300.289 298.6 295.729 298.6H290.257C287.233 298.6 285.721 299.296 285.721 300.688C285.721 301.36 286.057 301.912 286.729 302.344C287.401 302.728 288.577 302.92 290.257 302.92H303.217C307.441 302.92 310.633 304.024 312.793 306.232C314.953 308.44 316.033 311.392 316.033 315.088C316.033 317.824 315.313 320.176 313.873 322.144C312.433 324.112 310.489 325.6 308.041 326.608C305.593 327.616 302.929 328.12 300.049 328.12H278.881C277.153 328.12 275.545 327.712 274.057 326.896C272.617 326.08 271.465 324.952 270.601 323.512C269.737 322.12 269.305 320.56 269.305 318.832C269.305 316.96 269.881 315.256 271.033 313.72C272.185 312.232 273.625 311.104 275.353 310.336C274.201 309.52 273.289 308.536 272.617 307.384C271.945 306.232 271.609 304.984 271.609 303.64C271.609 301.768 272.305 300.088 273.697 298.6C275.089 297.064 276.817 296.032 278.881 295.504C277.009 294.304 275.521 292.936 274.417 291.4C273.313 289.816 272.761 288.16 272.761 286.432C272.761 282.016 274.537 278.872 278.089 277C281.689 275.08 286.441 274.12 292.345 274.12C294.937 274.12 297.025 274.264 298.609 274.552C300.961 273.064 302.473 271.72 303.145 270.52C303.865 269.272 304.225 268.384 304.225 267.856H316.033ZM292.201 281.608C290.617 281.608 289.321 282.016 288.313 282.832C287.305 283.648 286.801 284.824 286.801 286.36C286.801 287.944 287.257 289.144 288.169 289.96C289.129 290.728 290.473 291.112 292.201 291.112C293.929 291.112 295.273 290.728 296.233 289.96C297.241 289.144 297.745 287.944 297.745 286.36C297.745 284.776 297.241 283.6 296.233 282.832C295.273 282.016 293.929 281.608 292.201 281.608ZM286.657 313C285.553 313 284.641 313.288 283.921 313.864C283.249 314.488 282.913 315.352 282.913 316.456C282.913 317.56 283.273 318.448 283.993 319.12C284.713 319.792 285.601 320.128 286.657 320.128H297.889C298.945 320.128 299.833 319.792 300.553 319.12C301.321 318.496 301.705 317.632 301.705 316.528C301.705 315.424 301.345 314.56 300.625 313.936C299.905 313.312 298.993 313 297.889 313H286.657ZM345.666 274.048C346.77 274.048 347.754 274.192 348.618 274.48C349.482 274.72 349.914 274.864 349.914 274.912V286.936H345.306C342.33 286.936 340.17 287.704 338.826 289.24C337.53 290.776 336.882 293.056 336.882 296.08V313H322.554V274.984H334.29L335.226 280.744C336.09 278.536 337.458 276.88 339.33 275.776C341.202 274.624 343.314 274.048 345.666 274.048ZM374.534 274.12C380.342 274.12 385.07 275.104 388.718 277.072C392.366 278.992 394.19 282.136 394.19 286.504V301.336C394.19 302.152 394.382 302.824 394.766 303.352C395.15 303.88 395.726 304.144 396.494 304.144H399.086V312.424C398.942 312.52 398.558 312.688 397.934 312.928C397.358 313.12 396.518 313.312 395.414 313.504C394.31 313.744 393.038 313.864 391.598 313.864C388.814 313.864 386.51 313.456 384.686 312.64C382.91 311.776 381.686 310.6 381.014 309.112C379.19 310.552 377.15 311.704 374.894 312.568C372.638 313.432 369.998 313.864 366.974 313.864C358.046 313.864 353.582 310.312 353.582 303.208C353.582 299.512 354.566 296.704 356.534 294.784C358.55 292.816 361.43 291.472 365.174 290.752C368.918 290.032 373.814 289.672 379.862 289.672V287.8C379.862 286.312 379.334 285.184 378.278 284.416C377.27 283.648 375.95 283.264 374.318 283.264C372.83 283.264 371.534 283.528 370.43 284.056C369.374 284.584 368.846 285.424 368.846 286.576V286.864H354.734C354.686 286.624 354.662 286.288 354.662 285.856C354.662 282.256 356.366 279.4 359.774 277.288C363.23 275.176 368.15 274.12 374.534 274.12ZM379.862 296.44C375.782 296.44 372.758 296.896 370.79 297.808C368.87 298.672 367.91 299.848 367.91 301.336C367.91 303.736 369.542 304.936 372.806 304.936C374.678 304.936 376.31 304.432 377.702 303.424C379.142 302.416 379.862 301.168 379.862 299.68V296.44ZM454.237 274.12C458.557 274.12 461.797 275.368 463.957 277.864C466.117 280.312 467.197 283.816 467.197 288.376V313H452.869V290.104C452.869 288.472 452.461 287.176 451.645 286.216C450.877 285.208 449.773 284.704 448.333 284.704C446.653 284.704 445.285 285.28 444.229 286.432C443.173 287.584 442.645 289 442.645 290.68V313H428.317V290.104C428.317 288.472 427.909 287.176 427.093 286.216C426.325 285.208 425.221 284.704 423.781 284.704C422.101 284.704 420.733 285.28 419.677 286.432C418.621 287.584 418.093 289 418.093 290.68V313H403.765V274.984H415.501L416.437 280.672C417.877 278.656 419.773 277.072 422.125 275.92C424.525 274.72 427.045 274.12 429.685 274.12C435.397 274.12 439.237 276.304 441.205 280.672C442.693 278.656 444.589 277.072 446.893 275.92C449.245 274.72 451.693 274.12 454.237 274.12ZM526.237 274.12C530.557 274.12 533.797 275.368 535.957 277.864C538.117 280.312 539.197 283.816 539.197 288.376V313H524.869V290.104C524.869 288.472 524.461 287.176 523.645 286.216C522.877 285.208 521.773 284.704 520.333 284.704C518.653 284.704 517.285 285.28 516.229 286.432C515.173 287.584 514.645 289 514.645 290.68V313H500.317V290.104C500.317 288.472 499.909 287.176 499.093 286.216C498.325 285.208 497.221 284.704 495.781 284.704C494.101 284.704 492.733 285.28 491.677 286.432C490.621 287.584 490.093 289 490.093 290.68V313H475.765V274.984H487.501L488.437 280.672C489.877 278.656 491.773 277.072 494.125 275.92C496.525 274.72 499.045 274.12 501.685 274.12C507.397 274.12 511.237 276.304 513.205 280.672C514.693 278.656 516.589 277.072 518.893 275.92C521.245 274.72 523.693 274.12 526.237 274.12ZM567.421 274.12C574.381 274.12 579.685 275.752 583.333 279.016C587.029 282.28 588.877 287.272 588.877 293.992V296.44H560.365C560.365 299.176 560.965 301.24 562.165 302.632C563.413 304.024 565.357 304.72 567.997 304.72C570.397 304.72 572.149 304.216 573.253 303.208C574.405 302.2 574.981 300.856 574.981 299.176H588.877C588.877 303.784 587.125 307.384 583.621 309.976C580.117 312.568 575.005 313.864 568.285 313.864C561.229 313.864 555.757 312.232 551.869 308.968C547.981 305.656 546.037 300.664 546.037 293.992C546.037 287.464 547.933 282.52 551.725 279.16C555.517 275.8 560.749 274.12 567.421 274.12ZM567.997 283.264C563.485 283.264 560.965 285.4 560.437 289.672H574.405C574.405 287.704 573.829 286.144 572.677 284.992C571.573 283.84 570.013 283.264 567.997 283.264ZM618.901 274.048C620.005 274.048 620.989 274.192 621.853 274.48C622.717 274.72 623.149 274.864 623.149 274.912V286.936H618.541C615.565 286.936 613.405 287.704 612.061 289.24C610.765 290.776 610.117 293.056 610.117 296.08V313H595.789V274.984H607.525L608.461 280.744C609.325 278.536 610.693 276.88 612.565 275.776C614.437 274.624 616.549 274.048 618.901 274.048ZM647.681 274.12C652.769 274.12 657.065 275.128 660.569 277.144C664.121 279.112 665.897 282.184 665.897 286.36H652.577C652.577 284.968 651.953 283.984 650.705 283.408C649.841 282.928 648.761 282.688 647.465 282.688C644.009 282.688 642.281 283.504 642.281 285.136C642.281 286.048 642.881 286.696 644.081 287.08C645.281 287.464 647.249 287.872 649.985 288.304C653.345 288.784 656.153 289.36 658.409 290.032C660.665 290.656 662.633 291.808 664.313 293.488C665.993 295.12 666.833 297.424 666.833 300.4C666.833 305.248 665.009 308.704 661.361 310.768C657.761 312.832 653.033 313.864 647.177 313.864C643.817 313.864 640.649 313.408 637.673 312.496C634.697 311.536 632.273 310.072 630.401 308.104C628.529 306.136 627.593 303.64 627.593 300.616H640.913V300.904C640.961 302.536 641.633 303.688 642.929 304.36C644.273 304.984 645.689 305.296 647.177 305.296C651.161 305.296 653.153 304.36 653.153 302.488C653.153 301.528 652.529 300.832 651.281 300.4C650.033 299.968 647.993 299.512 645.161 299.032C641.753 298.456 638.945 297.832 636.737 297.16C634.577 296.488 632.681 295.36 631.049 293.776C629.417 292.144 628.601 289.888 628.601 287.008C628.601 282.352 630.353 279.04 633.857 277.072C637.409 275.104 642.017 274.12 647.681 274.12ZM673.697 313V298.672H688.961V313H673.697Z" fill="#7A7A7A"/>
<path d="M514.664 196.984V206.704H506.6V221.176C506.6 222.904 506.888 224.176 507.464 224.992C508.04 225.76 509.096 226.144 510.632 226.144H514.664V234.568C513.512 234.952 512.024 235.264 510.2 235.504C508.376 235.744 506.792 235.864 505.448 235.864C501.224 235.864 497.96 235.096 495.656 233.56C493.4 232.024 492.272 229.408 492.272 225.712V206.704H486.944V196.984H492.848L495.944 185.464H506.6V196.984H514.664ZM535.64 200.944C537.176 199.408 538.976 198.232 541.04 197.416C543.104 196.552 545.264 196.12 547.52 196.12C551.936 196.12 555.248 197.344 557.456 199.792C559.664 202.24 560.768 205.768 560.768 210.376V235H546.44V212.104C546.44 210.472 546.008 209.176 545.144 208.216C544.328 207.208 543.152 206.704 541.616 206.704C539.84 206.704 538.4 207.28 537.296 208.432C536.192 209.584 535.64 211 535.64 212.68V235H521.312V182.8H535.64V200.944ZM588.992 196.12C595.952 196.12 601.256 197.752 604.904 201.016C608.6 204.28 610.448 209.272 610.448 215.992V218.44H581.936C581.936 221.176 582.536 223.24 583.736 224.632C584.984 226.024 586.928 226.72 589.568 226.72C591.968 226.72 593.72 226.216 594.824 225.208C595.976 224.2 596.552 222.856 596.552 221.176H610.448C610.448 225.784 608.696 229.384 605.192 231.976C601.688 234.568 596.576 235.864 589.856 235.864C582.8 235.864 577.328 234.232 573.44 230.968C569.552 227.656 567.608 222.664 567.608 215.992C567.608 209.464 569.504 204.52 573.296 201.16C577.088 197.8 582.32 196.12 588.992 196.12ZM589.568 205.264C585.056 205.264 582.536 207.4 582.008 211.672H595.976C595.976 209.704 595.4 208.144 594.248 206.992C593.144 205.84 591.584 205.264 589.568 205.264ZM667.832 196.984H684.536L670.496 212.32L684.896 235H668.624L660.632 221.968L655.664 226.792V235H641.336V182.728H655.664V211.528L667.832 196.984ZM706.554 196.12C713.514 196.12 718.818 197.752 722.466 201.016C726.162 204.28 728.01 209.272 728.01 215.992V218.44H699.498C699.498 221.176 700.098 223.24 701.298 224.632C702.546 226.024 704.49 226.72 707.13 226.72C709.53 226.72 711.282 226.216 712.386 225.208C713.538 224.2 714.114 222.856 714.114 221.176H728.01C728.01 225.784 726.258 229.384 722.754 231.976C719.25 234.568 714.138 235.864 707.418 235.864C700.362 235.864 694.89 234.232 691.002 230.968C687.114 227.656 685.17 222.664 685.17 215.992C685.17 209.464 687.066 204.52 690.858 201.16C694.65 197.8 699.882 196.12 706.554 196.12ZM707.13 205.264C702.618 205.264 700.098 207.4 699.57 211.672H713.538C713.538 209.704 712.962 208.144 711.81 206.992C710.706 205.84 709.146 205.264 707.13 205.264ZM761.058 233.848C759.09 239.176 756.666 243.208 753.786 245.944C750.954 248.728 746.97 250.12 741.834 250.12C738.714 250.12 735.954 249.688 733.554 248.824V240.256H739.314C742.914 240.256 745.05 238.504 745.722 235L730.602 196.984H746.01L753.282 222.256H753.786L760.482 196.984H774.594L761.058 233.848ZM793.337 200.512C796.073 197.584 799.625 196.12 803.993 196.12C809.129 196.12 813.089 197.8 815.873 201.16C818.657 204.472 820.049 209.392 820.049 215.92C820.049 222.496 818.657 227.464 815.873 230.824C813.089 234.184 809.129 235.864 803.993 235.864C798.713 235.864 794.681 233.776 791.897 229.6L790.673 235H779.009V182.8H793.337V200.512ZM799.529 206.704C797.417 206.704 795.833 207.472 794.777 209.008C793.721 210.496 793.193 212.44 793.193 214.84V217.216C793.193 219.616 793.721 221.56 794.777 223.048C795.833 224.536 797.417 225.28 799.529 225.28C803.657 225.28 805.721 222.832 805.721 217.936V214.12C805.721 209.176 803.657 206.704 799.529 206.704ZM846.617 196.12C853.289 196.12 858.521 197.824 862.313 201.232C866.153 204.592 868.073 209.512 868.073 215.992C868.073 222.472 866.153 227.416 862.313 230.824C858.521 234.184 853.289 235.864 846.617 235.864C839.945 235.864 834.713 234.184 830.921 230.824C827.129 227.464 825.233 222.52 825.233 215.992C825.233 209.464 827.129 204.52 830.921 201.16C834.713 197.8 839.945 196.12 846.617 196.12ZM846.617 205.84C841.913 205.84 839.561 208.552 839.561 213.976V218.08C839.561 223.456 841.913 226.144 846.617 226.144C851.369 226.144 853.745 223.456 853.745 218.08V213.976C853.745 208.552 851.369 205.84 846.617 205.84ZM893.776 196.12C899.584 196.12 904.312 197.104 907.96 199.072C911.608 200.992 913.432 204.136 913.432 208.504V223.336C913.432 224.152 913.624 224.824 914.008 225.352C914.392 225.88 914.968 226.144 915.736 226.144H918.328V234.424C918.184 234.52 917.8 234.688 917.176 234.928C916.6 235.12 915.76 235.312 914.656 235.504C913.552 235.744 912.28 235.864 910.84 235.864C908.056 235.864 905.752 235.456 903.928 234.64C902.152 233.776 900.928 232.6 900.256 231.112C898.432 232.552 896.392 233.704 894.136 234.568C891.88 235.432 889.24 235.864 886.216 235.864C877.288 235.864 872.824 232.312 872.824 225.208C872.824 221.512 873.808 218.704 875.776 216.784C877.792 214.816 880.672 213.472 884.416 212.752C888.16 212.032 893.056 211.672 899.104 211.672V209.8C899.104 208.312 898.576 207.184 897.52 206.416C896.512 205.648 895.192 205.264 893.56 205.264C892.072 205.264 890.776 205.528 889.672 206.056C888.616 206.584 888.088 207.424 888.088 208.576V208.864H873.976C873.928 208.624 873.904 208.288 873.904 207.856C873.904 204.256 875.608 201.4 879.016 199.288C882.472 197.176 887.392 196.12 893.776 196.12ZM899.104 218.44C895.024 218.44 892 218.896 890.032 219.808C888.112 220.672 887.152 221.848 887.152 223.336C887.152 225.736 888.784 226.936 892.048 226.936C893.92 226.936 895.552 226.432 896.944 225.424C898.384 224.416 899.104 223.168 899.104 221.68V218.44ZM946.12 196.048C947.224 196.048 948.208 196.192 949.072 196.48C949.936 196.72 950.368 196.864 950.368 196.912V208.936H945.76C942.784 208.936 940.624 209.704 939.28 211.24C937.984 212.776 937.336 215.056 937.336 218.08V235H923.008V196.984H934.744L935.68 202.744C936.544 200.536 937.912 198.88 939.784 197.776C941.656 196.624 943.768 196.048 946.12 196.048ZM984.476 235L983.252 229.6C980.468 233.776 976.436 235.864 971.156 235.864C966.02 235.864 962.06 234.184 959.276 230.824C956.492 227.464 955.1 222.496 955.1 215.92C955.1 209.392 956.492 204.472 959.276 201.16C962.06 197.8 966.02 196.12 971.156 196.12C975.524 196.12 979.076 197.584 981.812 200.512V182.8H996.14V235H984.476ZM975.62 206.704C971.492 206.704 969.428 209.176 969.428 214.12V217.936C969.428 222.832 971.492 225.28 975.62 225.28C977.732 225.28 979.316 224.536 980.372 223.048C981.428 221.56 981.956 219.616 981.956 217.216V214.84C981.956 212.44 981.428 210.496 980.372 209.008C979.316 207.472 977.732 206.704 975.62 206.704ZM1029.33 235V182.8H1043.66V235H1029.33ZM1071.6 196.12C1077.4 196.12 1082.13 197.104 1085.78 199.072C1089.43 200.992 1091.25 204.136 1091.25 208.504V223.336C1091.25 224.152 1091.44 224.824 1091.83 225.352C1092.21 225.88 1092.79 226.144 1093.56 226.144H1096.15V234.424C1096 234.52 1095.62 234.688 1095 234.928C1094.42 235.12 1093.58 235.312 1092.48 235.504C1091.37 235.744 1090.1 235.864 1088.66 235.864C1085.88 235.864 1083.57 235.456 1081.75 234.64C1079.97 233.776 1078.75 232.6 1078.08 231.112C1076.25 232.552 1074.21 233.704 1071.96 234.568C1069.7 235.432 1067.06 235.864 1064.04 235.864C1055.11 235.864 1050.64 232.312 1050.64 225.208C1050.64 221.512 1051.63 218.704 1053.6 216.784C1055.61 214.816 1058.49 213.472 1062.24 212.752C1065.98 212.032 1070.88 211.672 1076.92 211.672V209.8C1076.92 208.312 1076.4 207.184 1075.34 206.416C1074.33 205.648 1073.01 205.264 1071.38 205.264C1069.89 205.264 1068.6 205.528 1067.49 206.056C1066.44 206.584 1065.91 207.424 1065.91 208.576V208.864H1051.8C1051.75 208.624 1051.72 208.288 1051.72 207.856C1051.72 204.256 1053.43 201.4 1056.84 199.288C1060.29 197.176 1065.21 196.12 1071.6 196.12ZM1076.92 218.44C1072.84 218.44 1069.82 218.896 1067.85 219.808C1065.93 220.672 1064.97 221.848 1064.97 223.336C1064.97 225.736 1066.6 226.936 1069.87 226.936C1071.74 226.936 1073.37 226.432 1074.76 225.424C1076.2 224.416 1076.92 223.168 1076.92 221.68V218.44ZM1126.96 233.848C1125 239.176 1122.57 243.208 1119.69 245.944C1116.86 248.728 1112.88 250.12 1107.74 250.12C1104.62 250.12 1101.86 249.688 1099.46 248.824V240.256H1105.22C1108.82 240.256 1110.96 238.504 1111.63 235L1096.51 196.984H1111.92L1119.19 222.256H1119.69L1126.39 196.984H1140.5L1126.96 233.848ZM1163.3 196.12C1169.98 196.12 1175.21 197.824 1179 201.232C1182.84 204.592 1184.76 209.512 1184.76 215.992C1184.76 222.472 1182.84 227.416 1179 230.824C1175.21 234.184 1169.98 235.864 1163.3 235.864C1156.63 235.864 1151.4 234.184 1147.61 230.824C1143.82 227.464 1141.92 222.52 1141.92 215.992C1141.92 209.464 1143.82 204.52 1147.61 201.16C1151.4 197.8 1156.63 196.12 1163.3 196.12ZM1163.3 205.84C1158.6 205.84 1156.25 208.552 1156.25 213.976V218.08C1156.25 223.456 1158.6 226.144 1163.3 226.144C1168.06 226.144 1170.43 223.456 1170.43 218.08V213.976C1170.43 208.552 1168.06 205.84 1163.3 205.84ZM1219.25 235L1218.31 229.24C1216.82 231.304 1214.86 232.936 1212.41 234.136C1210.01 235.288 1207.46 235.864 1204.78 235.864C1200.36 235.864 1197.05 234.64 1194.84 232.192C1192.63 229.744 1191.53 226.216 1191.53 221.608V196.984H1205.86V219.88C1205.86 221.512 1206.26 222.832 1207.08 223.84C1207.94 224.8 1209.14 225.28 1210.68 225.28C1212.46 225.28 1213.9 224.704 1215 223.552C1216.1 222.4 1216.66 220.984 1216.66 219.304V196.984H1230.98V235H1219.25ZM1265.04 196.984V206.704H1256.98V221.176C1256.98 222.904 1257.26 224.176 1257.84 224.992C1258.42 225.76 1259.47 226.144 1261.01 226.144H1265.04V234.568C1263.89 234.952 1262.4 235.264 1260.58 235.504C1258.75 235.744 1257.17 235.864 1255.82 235.864C1251.6 235.864 1248.34 235.096 1246.03 233.56C1243.78 232.024 1242.65 229.408 1242.65 225.712V206.704H1237.32V196.984H1243.22L1246.32 185.464H1256.98V196.984H1265.04Z" fill="#7A7A7A"/>
<path d="M1083.81 136.888V125.512H1102.17V136.888H1083.81ZM1116.06 97.936C1120.19 102.352 1123.38 107.368 1125.64 112.984C1127.9 118.6 1129.02 124.36 1129.02 130.264C1129.02 136.12 1127.9 141.856 1125.64 147.472C1123.38 153.088 1120.19 158.104 1116.06 162.52H1107.42C1110.26 158.104 1112.56 152.92 1114.34 146.968C1116.11 140.968 1117 135.4 1117 130.264C1117 125.176 1116.11 119.632 1114.34 113.632C1112.56 107.584 1110.26 102.352 1107.42 97.936H1116.06ZM1132.96 160.072V155.608H1168.96V160.072H1132.96ZM1178.39 97.936C1181.13 97.936 1183.5 98.632 1185.52 100.024C1187.54 101.416 1188.54 103.408 1188.54 106V123.208C1188.54 124.552 1189.17 125.584 1190.42 126.304C1191.71 126.976 1193.18 127.312 1194.81 127.312V133C1193.03 133 1191.54 133.336 1190.34 134.008C1189.14 134.632 1188.54 135.616 1188.54 136.96V154.456C1188.54 157.048 1187.54 159.04 1185.52 160.432C1183.5 161.824 1181.13 162.52 1178.39 162.52H1171.84V155.464C1175.39 155.464 1177.22 154.456 1177.31 152.44L1178.03 137.896C1178.27 132.952 1180.7 130.48 1185.3 130.48V129.832C1180.7 129.832 1178.27 127.36 1178.03 122.416L1177.31 107.944C1177.22 105.976 1175.39 104.992 1171.84 104.992V97.936H1178.39ZM1201.7 162.52V155.104H1209.91V105.352H1201.7V97.936H1221.35V162.52H1201.7Z" fill="#ECECEC"/>
</svg>
